<?xml version="1.0" encoding="UTF-8" standalone="no"?>
<svg
   xmlns:dc="http://purl.org/dc/elements/1.1/"
   xmlns:cc="http://creativecommons.org/ns#"
   xmlns:rdf="http://www.w3.org/1999/02/22-rdf-syntax-ns#"
   xmlns:svg="http://www.w3.org/2000/svg"
   xmlns="http://www.w3.org/2000/svg"
   xmlns:sodipodi="http://sodipodi.sourceforge.net/DTD/sodipodi-0.dtd"
   xmlns:inkscape="http://www.inkscape.org/namespaces/inkscape"
   width="1037.7085"
   height="792.24518"
   viewBox="0 0 274.56035 209.61487"
   version="1.1"
   id="svg8"
   inkscape:version="1.0.1 (1.0.1+r73)"
   sodipodi:docname="logo_01_italic_sm.svg">
  <defs
     id="defs2">
    <rect
       x="443.27313"
       y="293.13083"
       width="796.87219"
       height="435.9819"
       id="rect1505" />
  </defs>
  <sodipodi:namedview
     id="base"
     pagecolor="#ffffff"
     bordercolor="#666666"
     borderopacity="1.0"
     inkscape:pageopacity="0.0"
     inkscape:pageshadow="2"
     inkscape:zoom="1.4"
     inkscape:cx="306.22773"
     inkscape:cy="423.58342"
     inkscape:document-units="mm"
     inkscape:current-layer="layer1"
     inkscape:document-rotation="0"
     showgrid="false"
     units="px"
     fit-margin-top="20"
     fit-margin-left="20"
     fit-margin-bottom="20"
     fit-margin-right="20"
     inkscape:snap-global="false" />
  <metadata
     id="metadata5">
    <rdf:RDF>
      <cc:Work
         rdf:about="">
        <dc:format>image/svg+xml</dc:format>
        <dc:type
           rdf:resource="http://purl.org/dc/dcmitype/StillImage" />
        <dc:title />
      </cc:Work>
    </rdf:RDF>
  </metadata>
  <g
     inkscape:label="Layer 1"
     inkscape:groupmode="layer"
     id="layer1"
     transform="translate(9.1193735,-0.17661868)">
    <g
       aria-label="ʃ"
       transform="matrix(1.1917276,0,0,1.1333295,1.3420708,0)"
       id="text835"
       style="font-style:normal;font-weight:normal;font-size:38.3821px;line-height:1.25;font-family:sans-serif;letter-spacing:0px;word-spacing:0px;fill:#505050;fill-opacity:1;stroke:none;stroke-width:0.29986">
      <path
         d="M 22.807476,144.77469 C 29.835445,108.22925 36.687714,72.562313 43.364285,37.773868 45.414109,27.173349 49.484474,19.208317 55.575381,13.878774 61.314888,8.8420631 69.894867,6.3237077 81.315316,6.3237077 H 96.601148 L 93.96566,19.764698 H 78.504129 c -5.798075,0 -10.014856,1.171328 -12.650344,3.513984 -2.752621,2.342657 -4.714596,6.559438 -5.885924,12.650344 L 38.971804,144.77469 c -2.459789,12.53321 -6.58872,21.61101 -12.386794,27.23338 -5.915207,5.62237 -14.173071,8.43356 -24.7735904,8.43356 h -6.1494727 l -0.1739837,-18.68341 7.6110308,0.34354 c 6.1438151,0.27731 11.906599,-0.64228 14.717787,-3.45347 2.752621,-2.86975 3.233703,-4.91294 4.990695,-13.8736 z"
         style="font-style:italic;font-variant:normal;font-weight:normal;font-stretch:normal;font-size:179.916px;font-family:'DejaVu Sans Mono';-inkscape-font-specification:'DejaVu Sans Mono';fill:#505050;fill-opacity:1;stroke-width:0.29986"
         id="path1559"
         sodipodi:nodetypes="cccsccsccccsccscc" />
    </g>
    <text
       xml:space="preserve"
       id="text1503"
       style="font-style:normal;font-weight:normal;font-size:33.8667px;line-height:1.25;font-family:sans-serif;letter-spacing:0px;word-spacing:0px;white-space:pre;shape-inside:url(#rect1505);fill:#000000;fill-opacity:1;stroke:none;" />
    <path
       sodipodi:type="star"
       style="fill:#a02a2c;stroke-width:3;fill-opacity:1"
       id="path1533"
       sodipodi:sides="3"
       sodipodi:cx="-373.68283"
       sodipodi:cy="-220.41856"
       sodipodi:r1="97.187721"
       sodipodi:r2="48.593861"
       sodipodi:arg1="1.5449179"
       sodipodi:arg2="2.5921154"
       inkscape:flatsided="true"
       inkscape:rounded="0"
       inkscape:randomized="0"
       d="m -371.16805,-123.26338 -87.91103,-143.55491 168.27771,-4.35573 z"
       inkscape:transform-center-x="1.4092313"
       inkscape:transform-center-y="9.0088821"
       transform="matrix(1.1207686,0,0,0.38831611,588.23262,254.49372)" />
    <text
       xml:space="preserve"
       style="font-style:normal;font-weight:normal;font-size:33.8667px;line-height:1.25;font-family:sans-serif;letter-spacing:0px;word-spacing:0px;fill:#000000;fill-opacity:1;stroke:none;stroke-width:0.264583"
       x="-174.89616"
       y="-127.08913"
       id="text1582"><tspan
         sodipodi:role="line"
         id="tspan1580"
         x="-174.89616"
         y="-127.08913"
         style="stroke-width:0.264583" /></text>
    <text
       xml:space="preserve"
       style="font-style:normal;font-weight:normal;font-size:33.8667px;line-height:1.25;font-family:sans-serif;letter-spacing:0px;word-spacing:0px;fill:#000000;fill-opacity:1;stroke:none;stroke-width:0.264583"
       x="-176.8477"
       y="-140.12085"
       id="text1586"><tspan
         sodipodi:role="line"
         id="tspan1584"
         x="-176.8477"
         y="-140.12085"
         style="stroke-width:0.264583" /></text>
    <g
       aria-label="—"
       transform="matrix(0.45662851,0,0,1.5442425,3.7724365,2.3095965)"
       id="text1590"
       style="font-style:normal;font-weight:normal;font-size:407.737px;line-height:1.25;font-family:sans-serif;letter-spacing:0px;word-spacing:0px;fill:#505050;fill-opacity:1;stroke:none;stroke-width:1.63094">
      <path
         d="m 201.22747,3.0745568 343.68354,0.1135645 c 37.8206,12.7919357 -0.45423,29.6063117 -0.45423,29.6063117 l -422.8048,-0.05904 z"
         style="font-size:407.737px;fill:#505050;fill-opacity:1;stroke-width:1.59828"
         id="path1592"
         sodipodi:nodetypes="ccccc" />
    </g>
    <g
       aria-label="—"
       transform="matrix(0.56272179,0,0,1.5696393,-56.080795,76.052115)"
       id="text1590-8"
       style="font-style:normal;font-weight:normal;font-size:407.737px;line-height:1.25;font-family:sans-serif;letter-spacing:0px;word-spacing:0px;fill:#505050;fill-opacity:1;stroke:none;stroke-width:1.63094" />
    <g
       aria-label="ʃ"
       transform="matrix(1.1917276,0,0,1.1333295,18.260502,-0.27176021)"
       id="text835-7"
       style="font-style:normal;font-weight:normal;font-size:38.3821px;line-height:1.25;font-family:sans-serif;letter-spacing:0px;word-spacing:0px;fill:#505050;fill-opacity:1;stroke:none;stroke-width:0.29986">
      <path
         d="M 22.807476,144.77469 C 29.835445,108.22925 36.687714,72.562313 43.364285,37.773868 45.414109,27.173349 49.484474,19.208317 55.575381,13.878774 61.314888,8.8420631 69.894867,6.3237077 81.315316,6.3237077 H 96.601148 L 93.96566,19.764698 H 78.504129 c -5.798075,0 -10.014856,1.171328 -12.650344,3.513984 -2.752621,2.342657 -4.714596,6.559438 -5.885924,12.650344 L 38.971804,144.77469 c -2.459789,12.53321 -6.58872,21.61101 -12.386794,27.23338 -5.915207,5.62237 -14.173071,8.43356 -24.7735904,8.43356 l -11.0676071,0.0924 7.5536227,-13.79697 h 4.3046309 c 6.1494726,0 10.6298029,-1.40559 13.4409899,-4.21678 2.752621,-2.86975 5.007428,-8.78496 6.76442,-17.74562 z"
         style="font-style:italic;font-variant:normal;font-weight:normal;font-stretch:normal;font-size:179.916px;font-family:'DejaVu Sans Mono';-inkscape-font-specification:'DejaVu Sans Mono';fill:#505050;fill-opacity:1;stroke-width:0.29986"
         id="path1559-5"
         sodipodi:nodetypes="cccsccsccccsccscc" />
    </g>
    <g
       aria-label="—"
       transform="matrix(0.4566285,0,0,1.5442425,3.7728653,74.145787)"
       id="text1590-2"
       style="font-style:normal;font-weight:normal;font-size:407.737px;line-height:1.25;font-family:sans-serif;letter-spacing:0px;word-spacing:0px;fill:#505050;fill-opacity:1;stroke:none;stroke-width:1.63094">
      <path
         d="m 149.37546,3.093846 395.53555,0.094275 c 37.8206,12.791936 -0.45423,29.606312 -0.45423,29.606312 l -422.8048,-0.05904 z"
         style="font-size:407.737px;fill:#505050;fill-opacity:1;stroke-width:1.59828"
         id="path1592-2"
         sodipodi:nodetypes="ccccc" />
    </g>
  </g>
</svg>
