<?xml version="1.0" encoding="UTF-8" standalone="no"?>
<svg
   xmlns:dc="http://purl.org/dc/elements/1.1/"
   xmlns:cc="http://creativecommons.org/ns#"
   xmlns:rdf="http://www.w3.org/1999/02/22-rdf-syntax-ns#"
   xmlns:svg="http://www.w3.org/2000/svg"
   xmlns="http://www.w3.org/2000/svg"
   xmlns:sodipodi="http://sodipodi.sourceforge.net/DTD/sodipodi-0.dtd"
   xmlns:inkscape="http://www.inkscape.org/namespaces/inkscape"
   width="1037.7085"
   height="792.24518"
   viewBox="0 0 274.56035 209.61487"
   version="1.1"
   id="svg8"
   inkscape:version="1.0.1 (1.0.1+r73)"
   sodipodi:docname="logo_01_italic.svg">
  <defs
     id="defs2">
    <rect
       x="443.27313"
       y="293.13083"
       width="796.87219"
       height="435.9819"
       id="rect1505" />
  </defs>
  <sodipodi:namedview
     id="base"
     pagecolor="#ffffff"
     bordercolor="#666666"
     borderopacity="1.0"
     inkscape:pageopacity="0.0"
     inkscape:pageshadow="2"
     inkscape:zoom="0.24748737"
     inkscape:cx="460.18121"
     inkscape:cy="470.76104"
     inkscape:document-units="mm"
     inkscape:current-layer="layer1"
     inkscape:document-rotation="0"
     showgrid="false"
     units="px"
     fit-margin-top="20"
     fit-margin-left="20"
     fit-margin-bottom="20"
     fit-margin-right="20" />
  <metadata
     id="metadata5">
    <rdf:RDF>
      <cc:Work
         rdf:about="">
        <dc:format>image/svg+xml</dc:format>
        <dc:type
           rdf:resource="http://purl.org/dc/dcmitype/StillImage" />
        <dc:title />
      </cc:Work>
    </rdf:RDF>
  </metadata>
  <g
     inkscape:label="Layer 1"
     inkscape:groupmode="layer"
     id="layer1"
     transform="translate(9.1193735,-0.17661868)">
    <g
       aria-label="ʃ"
       transform="scale(0.88235593,1.1333295)"
       id="text835"
       style="font-style:normal;font-weight:normal;font-size:38.3821px;line-height:1.25;font-family:sans-serif;letter-spacing:0px;word-spacing:0px;fill:#505050;fill-opacity:1;stroke:none;stroke-width:0.29986">
      <path
         d="M 22.807476,144.77469 Q 33.349429,89.956536 43.364285,37.773868 46.439021,21.873089 55.575381,13.878774 64.184642,6.3237077 81.315316,6.3237077 H 96.601148 L 93.96566,19.764698 H 78.504129 q -8.697112,0 -12.650344,3.513984 -4.128932,3.513985 -5.885924,12.650344 L 38.971804,144.77469 q -3.689683,18.79982 -12.386794,27.23338 -8.872811,8.43356 -24.7735904,8.43356 h -6.1494727 l 2.6354883,-13.70454 h 4.3046309 q 9.2242089,0 13.4409899,-4.21678 4.128932,-4.30463 6.76442,-17.74562 z"
         style="font-style:italic;font-variant:normal;font-weight:normal;font-stretch:normal;font-size:179.916px;font-family:'DejaVu Sans Mono';-inkscape-font-specification:'DejaVu Sans Mono';fill:#505050;fill-opacity:1;stroke-width:0.29986"
         id="path1559" />
    </g>
    <g
       aria-label="tatic"
       transform="scale(0.91950664,1.0875397)"
       id="text839"
       style="font-style:normal;font-weight:normal;font-size:36.8315px;line-height:1.25;font-family:sans-serif;letter-spacing:0px;word-spacing:0px;fill:#505050;fill-opacity:1;stroke:none;stroke-width:0.287744">
      <path
         d="m 120.74739,9.2723565 -2.19405,11.4378445 h 13.16431 l -1.83437,9.207825 h -13.16431 l -3.30906,17.048863 q -0.14387,0.575489 -0.21581,0.971138 -0.036,0.395648 -0.036,0.755329 0,1.654531 1.07904,2.373892 1.11501,0.719362 3.70471,0.719362 h 6.6541 l -1.83437,9.207824 h -10.82639 q -5.82683,0 -8.88411,-2.445828 -3.05729,-2.445829 -3.05729,-7.049741 0,-1.007106 0.1079,-2.158084 0.10791,-1.150978 0.32372,-2.337924 l 3.30906,-17.084831 h -6.330381 l 1.762436,-9.207825 h 6.402315 l 2.23002,-11.4378445 z"
         style="font-style:italic;font-weight:bold;font-size:73.6626px;fill:#505050;fill-opacity:1;stroke-width:0.287744"
         id="path1537" />
      <path
         d="m 153.69414,42.866529 q -4.81972,0 -7.30152,1.510659 -2.44583,1.474691 -2.44583,4.388104 0,2.194052 1.43873,3.452934 1.47469,1.258883 4.02842,1.258883 3.95649,0 6.61812,-2.373893 2.66164,-2.40986 3.56084,-6.761996 l 0.28775,-1.474691 z m 20.10615,-4.855688 -4.49601,22.983593 h -12.87657 l 1.07904,-5.970698 q -3.16518,3.596806 -6.69006,5.323273 -3.52487,1.690499 -7.66119,1.690499 -5.71893,0 -9.09992,-2.949381 -3.34503,-2.98535 -3.34503,-8.020879 0,-7.697166 5.93473,-11.761557 5.9707,-4.100359 17.19273,-4.100359 h 7.58926 l 0.14388,-1.007106 q 0.1079,-0.503553 0.1079,-0.719362 0.036,-0.215808 0.036,-0.395648 0,-2.373893 -2.26599,-3.560839 -2.23002,-1.222914 -6.65409,-1.222914 -3.99246,0 -7.73314,0.827266 -3.74067,0.827265 -7.22958,2.481796 l 1.94228,-9.819282 q 4.02842,-1.007106 8.23669,-1.510659 4.24423,-0.53952 8.7762,-0.53952 8.95605,0 13.30819,3.093253 4.35213,3.057286 4.35213,9.351697 0,1.222914 -0.17984,2.697605 -0.14387,1.438723 -0.46758,3.129222 z"
         style="font-style:italic;font-weight:bold;font-size:73.6626px;fill:#505050;fill-opacity:1;stroke-width:0.287744"
         id="path1539" />
      <path
         d="m 205.66799,9.2723565 -2.19405,11.4378445 h 13.16431 l -1.83437,9.207825 h -13.16431 l -3.30906,17.048863 q -0.14387,0.575489 -0.21581,0.971138 -0.036,0.395648 -0.036,0.755329 0,1.654531 1.07904,2.373892 1.11501,0.719362 3.70472,0.719362 h 6.65409 l -1.83437,9.207824 h -10.82639 q -5.82683,0 -8.88411,-2.445828 -3.05729,-2.445829 -3.05729,-7.049741 0,-1.007106 0.10791,-2.158084 0.1079,-1.150978 0.32371,-2.337924 l 3.30906,-17.084831 h -6.33038 l 1.76244,-9.207825 h 6.40231 l 2.23002,-11.4378445 z"
         style="font-style:italic;font-weight:bold;font-size:73.6626px;fill:#505050;fill-opacity:1;stroke-width:0.287744"
         id="path1541" />
      <path
         d="m 224.47929,20.710201 h 12.9485 l -7.87701,40.284233 H 216.63825 Z M 227.5006,5.0281248 h 12.94851 L 238.39893,15.5308 h -12.98447 z"
         style="font-style:italic;font-weight:bold;font-size:73.6626px;fill:#505050;fill-opacity:1;stroke-width:0.287744"
         id="path1543" />
      <path
         d="m 282.42385,21.969084 -2.05018,10.502675 q -2.5897,-1.726468 -5.10747,-2.625669 -2.51776,-0.899202 -4.92762,-0.899202 -6.29441,0 -10.28687,4.244232 -3.99246,4.208264 -3.99246,10.790419 0,4.208264 2.4818,6.546188 2.4818,2.301957 7.01377,2.301957 3.02132,0 5.93473,-0.899202 2.91342,-0.899202 5.53909,-2.661637 l -1.97825,10.538643 q -3.20115,1.11501 -6.43828,1.654531 -3.23713,0.575489 -6.51022,0.575489 -9.49557,0 -14.639,-4.244231 -5.10747,-4.2802 -5.10747,-12.121238 0,-4.927625 1.87034,-9.567506 1.90631,-4.63988 5.43118,-8.344591 3.92052,-4.064391 8.99202,-6.042635 5.07149,-1.978243 11.68962,-1.978243 3.05728,0 6.0786,0.575489 3.02132,0.539521 6.00667,1.654531 z"
         style="font-style:italic;font-weight:bold;font-size:73.6626px;fill:#505050;fill-opacity:1;stroke-width:0.287744"
         id="path1545" />
    </g>
    <g
       aria-label="earch"
       transform="scale(0.91950666,1.0875397)"
       id="text839-4"
       style="font-style:normal;font-weight:normal;font-size:36.8315px;line-height:1.25;font-family:sans-serif;letter-spacing:0px;word-spacing:0px;fill:#505050;fill-opacity:1;stroke:none;stroke-width:0.287744">
      <path
         d="m 101.42788,105.13617 -0.43162,2.05018 H 70.855026 q 0,0.21581 -0.03597,0.64743 -0.03597,0.39565 -0.03597,0.61146 0,3.92051 2.337924,5.86279 2.373892,1.94228 7.085709,1.94228 4.064391,0 8.560399,-1.22292 4.531976,-1.22291 9.495569,-3.63277 l -1.978243,9.99912 q -4.711817,1.72647 -9.387665,2.55373 -4.639881,0.86324 -9.459601,0.86324 -9.423633,0 -14.567067,-4.35214 -5.107465,-4.35214 -5.107465,-12.30108 0,-4.60391 1.618563,-8.920079 1.654531,-4.352136 4.783753,-7.948942 3.70471,-4.316168 8.848144,-6.546188 5.179401,-2.23002 11.473813,-2.23002 8.16475,0 12.948503,4.352136 4.819724,4.352135 4.819724,11.725589 0,1.438724 -0.21581,3.057284 -0.17984,1.5826 -0.61146,3.4889 z M 89.270675,99.237411 q 0.107904,-0.467585 0.143872,-0.93517 0.07194,-0.503553 0.07194,-0.971137 0,-2.877446 -1.726468,-4.567945 -1.726467,-1.690499 -4.675848,-1.690499 -3.776647,0 -6.438284,2.086148 -2.625668,2.05018 -4.028423,6.078603 z"
         style="font-style:italic;font-weight:bold;font-size:73.6626px;fill:#505050;fill-opacity:1;stroke-width:0.287744"
         id="path1548" />
      <path
         d="m 129.30313,105.63973 q -4.81972,0 -7.30151,1.51066 -2.44583,1.47469 -2.44583,4.3881 0,2.19405 1.43872,3.45293 1.47469,1.25889 4.02842,1.25889 3.95649,0 6.61813,-2.3739 2.66163,-2.40986 3.56084,-6.76199 l 0.28774,-1.47469 z m 20.10615,-4.85569 -4.49601,22.98359 h -12.87656 l 1.07904,-5.9707 q -3.16519,3.59681 -6.69006,5.32328 -3.52487,1.6905 -7.6612,1.6905 -5.71892,0 -9.09992,-2.94939 -3.34503,-2.98535 -3.34503,-8.02087 0,-7.69717 5.93473,-11.76156 5.9707,-4.100361 17.19274,-4.100361 h 7.58926 l 0.14387,-1.007106 q 0.1079,-0.503553 0.1079,-0.719361 0.036,-0.215809 0.036,-0.395649 0,-2.373892 -2.26599,-3.560839 -2.23002,-1.222914 -6.65409,-1.222914 -3.99245,0 -7.73313,0.827266 -3.74068,0.827265 -7.22958,2.481796 l 1.94227,-9.819282 q 4.02843,-1.007105 8.23669,-1.510658 4.24423,-0.539521 8.77621,-0.539521 8.95605,0 13.30818,3.093253 4.35214,3.057286 4.35214,9.351697 0,1.222914 -0.17984,2.697605 -0.14388,1.438723 -0.46759,3.129224 z"
         style="font-style:italic;font-weight:bold;font-size:73.6626px;fill:#505050;fill-opacity:1;stroke-width:0.287744"
         id="path1550" />
      <path
         d="m 192.6429,94.453658 q -1.33082,-0.755329 -2.94938,-1.150978 -1.61857,-0.395648 -3.48891,-0.395648 -4.92762,0 -8.20072,3.165189 -3.23712,3.16519 -4.3881,9.135889 l -3.66874,18.55952 h -12.91254 l 7.84104,-40.284232 h 12.9485 l -1.40275,6.905869 q 2.55373,-3.812615 6.36635,-5.826827 3.84858,-2.050179 8.52443,-2.050179 0.68339,0 1.54663,0.07194 0.86323,0.07194 2.05018,0.215808 z"
         style="font-style:italic;font-weight:bold;font-size:73.6626px;fill:#505050;fill-opacity:1;stroke-width:0.287744"
         id="path1552" />
      <path
         d="m 233.89827,84.742281 -2.05018,10.502675 q -2.58971,-1.726467 -5.10747,-2.625669 -2.51776,-0.899202 -4.92762,-0.899202 -6.29442,0 -10.28687,4.244232 -3.99246,4.208263 -3.99246,10.790423 0,4.20826 2.4818,6.54618 2.4818,2.30196 7.01377,2.30196 3.02132,0 5.93473,-0.8992 2.91342,-0.8992 5.53909,-2.66164 l -1.97825,10.53865 q -3.20116,1.11501 -6.43828,1.65453 -3.23713,0.57549 -6.51022,0.57549 -9.49557,0 -14.639,-4.24424 -5.10747,-4.2802 -5.10747,-12.12123 0,-4.92763 1.87034,-9.56751 1.90631,-4.63988 5.43118,-8.344591 3.92052,-4.064391 8.99201,-6.042635 5.0715,-1.978243 11.68963,-1.978243 3.05728,0 6.0786,0.575489 3.02132,0.539521 6.00667,1.654531 z"
         style="font-style:italic;font-weight:bold;font-size:73.6626px;fill:#505050;fill-opacity:1;stroke-width:0.287744"
         id="path1554" />
      <path
         d="m 282.27532,99.237411 -4.78375,24.530219 h -12.91254 l 4.06439,-21.00535 q 0.43162,-2.05018 0.64743,-3.452933 0.25177,-1.438722 0.25177,-2.265988 0,-2.301956 -1.29485,-3.560838 -1.25888,-1.258883 -3.5968,-1.258883 -3.99246,0 -6.8699,3.129222 -2.84148,3.093254 -3.95649,8.59637 l -3.88455,19.8184 h -12.91254 l 10.86236,-55.966308 h 12.9485 l -4.20826,21.580839 q 3.56084,-3.488902 7.15764,-5.179401 3.59681,-1.690499 7.51733,-1.690499 5.57505,0 8.59637,2.913413 3.02131,2.913413 3.02131,8.200719 0,1.150978 -0.17984,2.553732 -0.14387,1.402755 -0.46758,3.057286 z"
         style="font-style:italic;font-weight:bold;font-size:73.6626px;fill:#505050;fill-opacity:1;stroke-width:0.287744"
         id="path1556" />
    </g>
    <text
       xml:space="preserve"
       id="text1503"
       style="font-style:normal;font-weight:normal;font-size:33.8667px;line-height:1.25;font-family:sans-serif;letter-spacing:0px;word-spacing:0px;white-space:pre;shape-inside:url(#rect1505);fill:#000000;fill-opacity:1;stroke:none;" />
    <path
       sodipodi:type="star"
       style="fill:#a02a2c;stroke-width:3;fill-opacity:1"
       id="path1533"
       sodipodi:sides="3"
       sodipodi:cx="-373.68283"
       sodipodi:cy="-220.41856"
       sodipodi:r1="97.187721"
       sodipodi:r2="48.593861"
       sodipodi:arg1="1.5449179"
       sodipodi:arg2="2.5921154"
       inkscape:flatsided="true"
       inkscape:rounded="0"
       inkscape:randomized="0"
       d="m -371.16805,-123.26338 -87.91103,-143.55491 168.27771,-4.35573 z"
       inkscape:transform-center-x="1.637158"
       inkscape:transform-center-y="9.0088821"
       transform="matrix(1.3020367,0,0,0.38831611,640.94563,254.49372)" />
  </g>
</svg>
